<?xml version="1.0" encoding="UTF-8"?>
<svg width="16px" height="16px" viewBox="0 0 16 16" version="1.1" xmlns="http://www.w3.org/2000/svg" xmlns:xlink="http://www.w3.org/1999/xlink">
    <title>comment备份 6</title>
    <g id="最终" stroke="none" stroke-width="1" fill="none" fill-rule="evenodd">
        <g id="详情页（60）深色备份-2" transform="translate(-267.000000, -378.000000)" fill-rule="nonzero">
            <g id="comment备份-6" transform="translate(267.000000, 378.000000)">
                <rect id="矩形" fill="#000000" opacity="0" x="0" y="0" width="16" height="16"></rect>
                <path d="M12.3333333,2.33333333 C13.4379028,2.33333333 14.3333333,3.22876383 14.3333333,4.33333333 L14.3333333,10.3333333 C14.3333333,11.4379028 13.4379028,12.3333333 12.3333333,12.3333333 L10.0825204,12.3333333 C10.0294706,12.3333333 9.97859409,12.3544099 9.94108573,12.3919253 L8.23570226,14.0976311 L8.23570226,14.0976311 C8.1055275,14.2278058 7.8944725,14.2278058 7.76429774,14.0976311 L6.05857864,12.391912 C6.02107137,12.3544047 5.97020059,12.3333333 5.91715729,12.3333333 L3.66666667,12.3333333 L3.66666667,12.3333333 C2.56209717,12.3333333 1.66666667,11.4379028 1.66666667,10.3333333 L1.66666667,4.33333333 C1.66666667,3.22876383 2.56209717,2.33333333 3.66666667,2.33333333 L12.3333333,2.33333333 Z M12.3333333,3.33333333 L3.66666667,3.33333333 C3.13410637,3.33333333 2.69877971,3.74963999 2.66836423,4.27457574 L2.66666667,4.33333333 L2.66666667,10.3333333 C2.66666667,10.8658936 3.08297332,11.3012203 3.60790907,11.3316358 L3.66666667,11.3333333 L6.20711784,11.3333333 C6.33971954,11.3333333 6.46689078,11.3860066 6.56065788,11.4797666 L7.85823997,12.7772507 C7.93636185,12.8553205 8.06297704,12.855326 8.14110576,12.7772631 L9.43895876,11.4797356 C9.53272335,11.3859945 9.65988129,11.3333333 9.7924678,11.3333333 L12.3333333,11.3333333 L12.3333333,11.3333333 C12.8658936,11.3333333 13.3012203,10.9170267 13.3316358,10.3920909 L13.3333333,10.3333333 L13.3333333,4.33333333 C13.3333333,3.80077304 12.9170267,3.36544637 12.3920909,3.3350309 L12.3333333,3.33333333 Z" id="形状结合" fill-opacity="0.595771416" fill="#FFFFFF"></path>
                <path d="M9.40271918,7.39392904 C9.55304863,7.1622921 9.86269356,7.09637936 10.0943305,7.2467088 C10.3259674,7.39703824 10.3918802,7.70668317 10.2415507,7.93832011 C9.74837726,8.69823239 8.91066211,9.16666667 7.99410713,9.16666667 C7.07916983,9.16666667 6.24273126,8.69988963 5.7491654,7.94216804 C5.59844637,7.7107844 5.66383795,7.40102899 5.89522158,7.25030997 C6.12660522,7.09959094 6.43636063,7.16498252 6.58707966,7.39636615 C6.89855499,7.87454263 7.42202507,8.16666667 7.99410713,8.16666667 C8.56720093,8.16666667 9.09148595,7.87349652 9.40271918,7.39392904 Z" id="路径" fill-opacity="0.595771416" fill="#FFFFFF"></path>
            </g>
        </g>
    </g>
</svg>