<?xml version="1.0" encoding="UTF-8"?>
<svg width="24px" height="24px" viewBox="0 0 24 24" version="1.1" xmlns="http://www.w3.org/2000/svg" xmlns:xlink="http://www.w3.org/1999/xlink">
    <title>left-thick</title>
    <g id="最终" stroke="none" stroke-width="1" fill="none" fill-rule="evenodd">
        <g id="详情页（60）深色备份-3" transform="translate(-597.000000, -232.000000)" fill-rule="nonzero">
            <g id="编组" transform="translate(596.000000, 230.000000)">
                <g id="left-thick" transform="translate(1.000000, 2.000000)">
                    <rect id="矩形" fill="#000000" opacity="0" x="0" y="0" width="24" height="24"></rect>
                    <path d="M14.8535,17.53025 C14.5604927,17.8231192 14.0855632,17.8230632 13.792625,17.530125 L8.64649999,12.384 L8.64649999,12.384 C8.45130902,12.1887501 8.45130902,11.8722499 8.64649999,11.677 L13.7926484,6.53039837 C14.0855699,6.237451 14.5604965,6.23738458 14.8535,6.53025 C15.146418,6.82302998 15.1465299,7.29783201 14.8537499,7.59075003 C14.8537083,7.5907917 14.8536666,7.59083336 14.853625,7.59087501 L10.414,12.0305 L10.414,12.0305 L14.8535983,16.4696517 C15.1464473,16.7624712 15.1464712,17.2372494 14.8536517,17.5300984 C14.8536011,17.5301489 14.8535506,17.5301995 14.8535,17.53025 Z" id="路径" fill="#FFFFFF"></path>
                </g>
            </g>
        </g>
    </g>
</svg>