<?xml version="1.0" encoding="UTF-8"?>
<svg width="16px" height="16px" viewBox="0 0 16 16" version="1.1" xmlns="http://www.w3.org/2000/svg" xmlns:xlink="http://www.w3.org/1999/xlink">
    <title>编组 3</title>
    <g id="最终" stroke="none" stroke-width="1" fill="none" fill-rule="evenodd">
        <g id="详情页（60）深色备份-3" transform="translate(-166.000000, -346.000000)">
            <g id="编组-3" transform="translate(166.000000, 346.000000)">
                <rect id="矩形" x="0" y="0" width="16" height="16"></rect>
                <path d="M2.54166667,7 L2.79166667,7 C3.27491582,7 3.66666667,7.39175084 3.66666667,7.875 L3.66666667,13.4583333 C3.66666667,13.9415825 3.27491582,14.3333333 2.79166667,14.3333333 L2.54166667,14.3333333 C2.05841751,14.3333333 1.66666667,13.9415825 1.66666667,13.4583333 L1.66666667,7.875 C1.66666667,7.39175084 2.05841751,7 2.54166667,7 Z M7.71563387,1.66666667 C8.82020337,1.66666667 9.71563387,2.56209717 9.71563387,3.66666667 C9.71563387,3.75506672 9.70977295,3.84336951 9.69808967,3.93099411 L9.38365172,6.28927876 C9.35932105,6.47175878 9.48752643,6.63941196 9.67000645,6.66374263 C9.68461055,6.66568985 9.69932768,6.66666667 9.71406102,6.66666667 L13,6.66666667 C13.7363797,6.66666667 14.3333333,7.26362033 14.3333333,8 L14.3333333,8.89147125 C14.3333333,9.83576264 14.0826219,10.7631244 13.6068208,11.5787834 L12.5788171,13.3410754 C12.2203965,13.9555108 11.5625935,14.3333333 10.8512593,14.3333333 L6.66666667,14.3333333 C5.56209717,14.3333333 4.66666667,13.4379028 4.66666667,12.3333333 L4.66666667,7.69853622 C4.66666667,7.24057127 4.78460944,6.79032396 5.0091319,6.39117292 L7.66666667,1.66666667 L7.71563387,1.66666667 Z" id="形状结合" fill="#247BFF"></path>
            </g>
        </g>
    </g>
</svg>