<svg xmlns="http://www.w3.org/2000/svg" xmlns:xlink="http://www.w3.org/1999/xlink" fill="none" version="1.1" width="16" height="16" viewBox="0 0 16 16"><g style="mix-blend-mode:passthrough"><g style="mix-blend-mode:passthrough"></g><g style="mix-blend-mode:passthrough"><path d="M7.7156366269302366,1.6666666269302368C8.820206626930236,1.6666666269302368,9.715636626930237,2.5620976269302367,9.715636626930237,3.666666626930237C9.715636626930237,3.755066626930237,9.709776626930237,3.8433666269302367,9.698086626930237,3.930996626930237L9.383656626930236,6.289276626930237C9.359316626930237,6.471756626930237,9.487526626930237,6.639416626930236,9.670006626930236,6.663746626930237C9.684606626930236,6.665686626930237,9.699326626930237,6.666666626930237,9.714056626930237,6.666666626930237L12.999966626930236,6.666666626930237C13.736366626930236,6.666666626930237,14.333366626930237,7.2636166269302365,14.333366626930237,7.999996626930237L14.333366626930237,8.891466626930237C14.333366626930237,9.835766626930237,14.082666626930237,10.763126626930237,13.606866626930238,11.578786626930237L12.578866626930237,13.341066626930237C12.220366626930236,13.955466626930237,11.562596626930237,14.333366626930237,10.851256626930237,14.333366626930237L6.666666626930237,14.333366626930237C6.167856626930237,14.333366626930237,5.7116966269302365,14.150766626930237,5.361386626930237,13.848666626930237Q5.267566626930237,13.962366626930237,5.151196626930236,14.052666626930236Q5.034836626930237,14.143066626930237,4.901536626930237,14.205866626930236Q4.768246626930237,14.268666626930237,4.624456626930237,14.300866626930237Q4.4806766269302365,14.332966626930236,4.333336626930237,14.332966626930236L2.999996626930237,14.332966626930236Q2.934496626930237,14.332966626930236,2.8693066269302365,14.326566626930237Q2.8041266269302367,14.320166626930236,2.739876626930237,14.307366626930238Q2.6756366269302365,14.294566626930237,2.6129536269302367,14.275566626930237Q2.550271626930237,14.256566626930237,2.4897556269302368,14.231466626930237Q2.429238626930237,14.206466626930236,2.371470626930237,14.175566626930237Q2.3137026269302368,14.144666626930237,2.2592396269302366,14.108266626930236Q2.204776626930237,14.071866626930237,2.154142626930237,14.030366626930237Q2.1035086269302368,13.988766626930238,2.057190626930237,13.942466626930237Q2.0108736269302367,13.896166626930237,1.9693196269302369,13.845566626930237Q1.9277646269302369,13.794866626930236,1.8913736269302368,13.740466626930237Q1.8549826269302367,13.685966626930236,1.8241046269302368,13.628166626930236Q1.7932276269302367,13.570466626930237,1.7681606269302368,13.509966626930236Q1.7430938269302367,13.449366626930237,1.724079526930237,13.386766626930237Q1.7050651269302368,13.324066626930238,1.6922862269302368,13.259766626930237Q1.6795073269302367,13.195566626930237,1.6730869869302367,13.130366626930236Q1.6666666269302368,13.065166626930237,1.6666666269302368,12.999666626930237L1.6666666269302368,8.333006626930237Q1.6666666269302368,8.267506626930237,1.6730869869302367,8.202316626930237Q1.6795073269302367,8.137126626930236,1.6922862269302368,8.072886626930238Q1.7050651269302368,8.008646626930236,1.724079526930237,7.945956626930236Q1.7430938269302367,7.883276626930237,1.7681606269302368,7.822766626930237Q1.7932276269302367,7.762246626930237,1.8241046269302368,7.704476626930237Q1.8549826269302367,7.646706626930237,1.8913736269302368,7.592246626930237Q1.9277646269302369,7.537786626930237,1.9693196269302369,7.487146626930237Q2.0108736269302367,7.436516626930237,2.057190626930237,7.390196626930237Q2.1035086269302368,7.3438766269302365,2.154142626930237,7.3023266269302365Q2.204776626930237,7.2607766269302365,2.2592396269302366,7.224376626930237Q2.3137026269302368,7.187986626930237,2.371470626930237,7.157116626930237Q2.429238626930237,7.126236626930237,2.4897556269302368,7.101166626930237Q2.550271626930237,7.076106626930237,2.6129536269302367,7.057086626930237Q2.6756366269302365,7.038076626930237,2.739876626930237,7.025296626930237Q2.8041266269302367,7.012516626930237,2.8693066269302365,7.006096626930237Q2.934496626930237,6.999676626930237,2.999996626930237,6.999676626930237L4.333336626930237,6.999676626930237Q4.543356626930237,6.999676626930237,4.743206626930236,7.064236626930237C4.800616626930237,6.829796626930237,4.889826626930237,6.603266626930237,5.009136626930237,6.391176626930237L7.666666626930237,1.6666666269302368L7.7156366269302366,1.6666666269302368ZM5.666666626930237,8.333006626930237L5.666666626930237,12.333366626930237Q5.666666626930237,12.747566626930237,5.959556626930237,13.040466626930236Q6.252456626930237,13.333366626930237,6.666666626930237,13.333366626930237L10.851256626930237,13.333366626930237Q11.425626626930237,13.333366626930237,11.715066626930238,12.837166626930237L12.743066626930236,11.074916626930237Q13.333366626930237,10.062986626930236,13.333366626930237,8.891466626930237L13.333366626930237,7.999996626930237Q13.333366626930237,7.666666626930237,12.999966626930236,7.666666626930237L9.714056626930237,7.666666626930237Q9.625576626930236,7.666666626930237,9.537846626930236,7.6549666269302366Q8.990406626930238,7.581976626930237,8.654916626930238,7.143266626930237Q8.319436626930237,6.704556626930237,8.392426626930238,6.157116626930237L8.706856626930236,3.7988366269302367Q8.715636626930237,3.733036626930237,8.715636626930237,3.666666626930237Q8.715636626930237,3.252456626930237,8.422736626930238,2.9595566269302367Q8.313286626930237,2.850106626930237,8.186886626930237,2.7815566269302368L5.880706626930237,6.8814366269302365Q5.666666626930237,7.261946626930237,5.666666626930237,7.698536626930236L5.666666626930237,8.333006626930237ZM4.666666626930237,8.333006626930237Q4.666666626930237,7.999676626930237,4.333336626930237,7.999676626930237L2.999996626930237,7.999676626930237Q2.666666626930237,7.999676626930237,2.666666626930237,8.333006626930237L2.666666626930237,12.999666626930237Q2.666666626930237,13.332966626930236,2.999996626930237,13.332966626930236L4.333336626930237,13.332966626930236Q4.666666626930237,13.332966626930236,4.666666626930237,12.999666626930237L4.666666626930237,8.333006626930237Z" fill-rule="evenodd" fill="#FFFFFF" fill-opacity="0.6000000238418579"/></g></g></svg>