<?xml version="1.0" encoding="UTF-8"?>
<svg width="16px" height="16px" viewBox="0 0 16 16" version="1.1" xmlns="http://www.w3.org/2000/svg" xmlns:xlink="http://www.w3.org/1999/xlink">
    <title>icon/线型/加</title>
    <g id="icon/线型/加" stroke="none" stroke-width="1" fill="none" fill-rule="evenodd">
        <rect id="矩形" fill="#000000" fill-rule="nonzero" opacity="0" x="0" y="0" width="16" height="16"></rect>
        <g id="add">
            <rect id="矩形" fill="#000000" fill-rule="nonzero" opacity="0" x="0" y="0" width="16" height="16"></rect>
            <path d="M8.5,7.5 L13.5,7.5 C13.7761424,7.5 14,7.72385763 14,8 C14,8.27614237 13.7761424,8.5 13.5,8.5 L8.5,8.5 L8.5,8.5 L8.5,13.5 C8.5,13.7761424 8.27614237,14 8,14 C7.72385763,14 7.5,13.7761424 7.5,13.5 L7.5,8.5 L7.5,8.5 L2.5,8.5 C2.22385763,8.5 2,8.27614237 2,8 C2,7.72385763 2.22385763,7.5 2.5,7.5 L7.5,7.5 L7.5,7.5 L7.5,2.5 C7.5,2.22385763 7.72385763,2 8,2 C8.27614237,2 8.5,2.22385763 8.5,2.5 L8.5,7.5 L8.5,7.5 Z" id="路径" fill-opacity="0.85" fill="#111925"></path>
        </g>
    </g>
</svg>