<?xml version="1.0" encoding="UTF-8"?>
<svg width="20px" height="20px" viewBox="0 0 20 20" version="1.1" xmlns="http://www.w3.org/2000/svg" xmlns:xlink="http://www.w3.org/1999/xlink">
    <title>icon/线型/客服</title>
    <g id="最终" stroke="none" stroke-width="1" fill="none" fill-rule="evenodd">
        <g id="详情页（60）深色备份-3" transform="translate(-1344.000000, -14.000000)">
            <g id="编组-3" transform="translate(1340.000000, 10.000000)">
                <g id="icon/线型/客服" transform="translate(4.000000, 4.000000)">
                    <rect id="矩形" fill="#000000" fill-rule="nonzero" opacity="0" x="0" y="0" width="20" height="20"></rect>
                    <path d="M15.9483333,13.7220833 C15.8415572,13.7406565 15.7333795,13.75 15.625,13.75 L15.4166667,13.75 C14.4961921,13.75 13.75,13.0038079 13.75,12.0833333 L13.75,9.58333334 C13.75,8.66285876 14.4961921,7.91666667 15.4166667,7.91666667 L15.625,7.91666667 C15.7666667,7.91666667 15.905,7.9325 16.0375,7.9625 C15.3241667,5.29583334 12.8916667,3.33333334 10,3.33333334 C7.10833334,3.33333334 4.67625,5.29625 3.9625,7.9625 C4.095,7.9325 4.23333334,7.91666667 4.375,7.91666667 L4.58333333,7.91666667 C5.50380792,7.91666667 6.25,8.66285876 6.25,9.58333334 L6.25,12.0833333 C6.25,13.0038079 5.50380792,13.75 4.58333333,13.75 L4.375,13.75 C3.41994746,13.7501834 2.61736694,13.0324722 2.51125,12.0833333 L2.5,12.0833333 L2.5,9.58333334 C2.5,5.44125 5.85791666,2.08333334 10,2.08333334 C14.1420833,2.08333334 17.5,5.44125 17.5,9.58333334 L17.48875,12.0833333 L17.5,12.0833333 C17.5,15.305 14.8883333,17.9166667 11.6666667,17.9166667 L11.4995833,17.9166667 C11.2167048,18.4066267 10.6400072,18.6455027 10.0935278,18.4990739 C9.54704839,18.3526452 9.16705159,17.8574238 9.16705159,17.2916667 C9.16705159,16.7259096 9.54704839,16.2306881 10.0935278,16.0842594 C10.6400072,15.9378307 11.2167048,16.1767066 11.4995833,16.6666667 L11.6666667,16.6666667 C13.6208333,16.6666667 15.28875,15.4441667 15.9483333,13.7220833 Z M15,9.79166666 L15,11.875 C15,12.1998734 15.24787,12.4668536 15.5648083,12.4971389 L15.625,12.5 C15.970178,12.5 16.25,12.220178 16.25,11.875 L16.25,9.79166666 C16.25,9.44648869 15.970178,9.16666666 15.625,9.16666666 C15.279822,9.16666666 15,9.44648869 15,9.79166666 Z M4.375,12.5 C4.72017797,12.5 5,12.220178 5,11.875 L5,9.79166666 C5,9.46679328 4.75212997,9.19981304 4.43519167,9.16952773 L4.375,9.16666666 C4.02982203,9.16666666 3.75,9.44648869 3.75,9.79166666 L3.75,11.875 C3.75,12.220178 4.02982203,12.5 4.375,12.5 Z" id="形状" fill-opacity="0.6" fill="#FFFFFF"></path>
                </g>
            </g>
        </g>
    </g>
</svg>